<svg xmlns="http://www.w3.org/2000/svg" width="10.414" height="15.571" viewBox="0 0 10.414 15.571">
  <g id="Group_3710" data-name="Group 3710" transform="translate(-0.031)">
    <g id="surface1" transform="translate(0.031)">
      <path id="Path_3127" data-name="Path 3127" d="M2.739,15.571c-1.731-5.7,1.926-7.786,1.926-7.786A8.82,8.82,0,0,0,6.139,13.2,9.311,9.311,0,0,0,7.99,12.11a19.76,19.76,0,0,1-.641,3.459A9.15,9.15,0,0,0,10.3,10.955C11,8.075,8.955,5.184,8.955,5.184a7.723,7.723,0,0,1-1.917,5.575,1.105,1.105,0,0,0,.168-.259c.243-.485.632-1.747.4-4.669A7.461,7.461,0,0,0,3.572,0c.32,2.5-.64,3.075-2.89,7.818S2.739,15.571,2.739,15.571Zm0,0" transform="translate(-0.031 0)" fill="#fe6a59"/>
    </g>
  </g>
</svg>
