<svg xmlns="http://www.w3.org/2000/svg" width="41.848" height="35.035" viewBox="0 0 41.848 35.035">
  <g id="Group_3764" data-name="Group 3764" transform="translate(0 -41.674)">
    <g id="Group_3749" data-name="Group 3749" transform="translate(2.566 68.791)">
      <g id="Group_3748" data-name="Group 3748">
        <path id="Path_3201" data-name="Path 3201" d="M66.78,373.446H32.718a1.327,1.327,0,0,0,0,2.654H66.78a1.327,1.327,0,0,0,0-2.654Z" transform="translate(-31.391 -373.446)" fill="#ff6b5a"/>
      </g>
    </g>
    <g id="Group_3751" data-name="Group 3751" transform="translate(13.182 74.055)">
      <g id="Group_3750" data-name="Group 3750">
        <path id="Path_3202" data-name="Path 3202" d="M175.441,437.852H162.612a1.327,1.327,0,0,0,0,2.654h12.829a1.327,1.327,0,1,0,0-2.654Z" transform="translate(-161.285 -437.852)" fill="#ff6b5a"/>
      </g>
    </g>
    <g id="Group_3753" data-name="Group 3753" transform="translate(10.705 52.733)">
      <g id="Group_3752" data-name="Group 3752">
        <path id="Path_3203" data-name="Path 3203" d="M141.2,176.976a10.212,10.212,0,0,0-6.108,18.4,1.327,1.327,0,0,0,1.6-2.118,7.565,7.565,0,1,1,9.031-.01,1.327,1.327,0,0,0,1.571,2.139,10.212,10.212,0,0,0-6.094-18.411Z" transform="translate(-130.977 -176.976)" fill="#ff6b5a"/>
      </g>
    </g>
    <g id="Group_3755" data-name="Group 3755" transform="translate(19.597 41.674)">
      <g id="Group_3754" data-name="Group 3754">
        <path id="Path_3204" data-name="Path 3204" d="M241.09,41.674A1.327,1.327,0,0,0,239.763,43v7.078a1.327,1.327,0,1,0,2.654,0V43A1.327,1.327,0,0,0,241.09,41.674Z" transform="translate(-239.763 -41.674)" fill="#ff6b5a"/>
      </g>
    </g>
    <g id="Group_3757" data-name="Group 3757" transform="translate(32.116 61.271)">
      <g id="Group_3756" data-name="Group 3756">
        <path id="Path_3205" data-name="Path 3205" d="M401.335,281.438h-7.078a1.327,1.327,0,0,0,0,2.654h7.078a1.327,1.327,0,1,0,0-2.654Z" transform="translate(-392.93 -281.438)" fill="#ff6b5a"/>
      </g>
    </g>
    <g id="Group_3759" data-name="Group 3759" transform="translate(0 61.271)">
      <g id="Group_3758" data-name="Group 3758">
        <path id="Path_3206" data-name="Path 3206" d="M8.4,281.438H1.327a1.327,1.327,0,1,0,0,2.654H8.4a1.327,1.327,0,1,0,0-2.654Z" transform="translate(0 -281.438)" fill="#ff6b5a"/>
      </g>
    </g>
    <g id="Group_3761" data-name="Group 3761" transform="translate(28.488 47.381)">
      <g id="Group_3760" data-name="Group 3760">
        <path id="Path_3207" data-name="Path 3207" d="M355.813,111.883a1.327,1.327,0,0,0-1.877,0l-5,5a1.327,1.327,0,0,0,1.876,1.877l5-5A1.327,1.327,0,0,0,355.813,111.883Z" transform="translate(-348.549 -111.495)" fill="#ff6b5a"/>
      </g>
    </g>
    <g id="Group_3763" data-name="Group 3763" transform="translate(5.706 47.381)">
      <g id="Group_3762" data-name="Group 3762">
        <path id="Path_3208" data-name="Path 3208" d="M77.082,116.88l-5-5a1.327,1.327,0,0,0-1.877,1.877l5,5a1.327,1.327,0,0,0,1.877-1.877Z" transform="translate(-69.818 -111.493)" fill="#ff6b5a"/>
      </g>
    </g>
  </g>
</svg>
