<svg width="24" height="24" viewBox="0 0 18 19" fill="none" xmlns="http://www.w3.org/2000/svg">
<g id="add">
<mask id="mask0_919_2414" style="mask-type:alpha" maskUnits="userSpaceOnUse" x="0" y="0" width="18" height="19">
<rect id="Bounding box" y="0.5" width="18" height="18" fill="#D9D9D9"/>
</mask>
<g mask="url(#mask0_919_2414)">
<path id="add_2" d="M9.0001 14.8527C8.7607 14.8527 8.55866 14.7704 8.39399 14.6057C8.22931 14.441 8.14697 14.239 8.14697 13.9996V10.3527H4.5001C4.2607 10.3527 4.05866 10.2704 3.89399 10.1057C3.72931 9.94105 3.64697 9.73901 3.64697 9.49961C3.64697 9.26021 3.72931 9.05817 3.89399 8.8935C4.05866 8.72882 4.2607 8.64648 4.5001 8.64648H8.14697V4.99961C8.14697 4.76021 8.22931 4.55817 8.39399 4.3935C8.55866 4.22882 8.7607 4.14648 9.0001 4.14648C9.2395 4.14648 9.44153 4.22882 9.60621 4.3935C9.77088 4.55817 9.85322 4.76021 9.85322 4.99961V8.64648H13.5001C13.7395 8.64648 13.9415 8.72882 14.1062 8.8935C14.2709 9.05817 14.3532 9.26021 14.3532 9.49961C14.3532 9.73901 14.2709 9.94105 14.1062 10.1057C13.9415 10.2704 13.7395 10.3527 13.5001 10.3527H9.85322V13.9996C9.85322 14.239 9.77088 14.441 9.60621 14.6057C9.44153 14.7704 9.2395 14.8527 9.0001 14.8527Z" fill="#115DFC"/>
</g>
</g>
</svg>
