<svg width="24" height="25" viewBox="0 0 24 25" fill="none" xmlns="http://www.w3.org/2000/svg">
<mask id="mask0_4166_5027" style="mask-type:alpha" maskUnits="userSpaceOnUse" x="0" y="0" width="24" height="25">
<rect y="0.634766" width="24" height="24" fill="#D9D9D9"/>
</mask>
<g mask="url(#mask0_4166_5027)">
<path d="M12 14.0348L14.9 16.9348C15.0833 17.1181 15.3167 17.2098 15.6 17.2098C15.8833 17.2098 16.1167 17.1181 16.3 16.9348C16.4833 16.7514 16.575 16.5181 16.575 16.2348C16.575 15.9514 16.4833 15.7181 16.3 15.5348L13.4 12.6348L16.3 9.73477C16.4833 9.55143 16.575 9.3181 16.575 9.03477C16.575 8.75143 16.4833 8.5181 16.3 8.33477C16.1167 8.15143 15.8833 8.05977 15.6 8.05977C15.3167 8.05977 15.0833 8.15143 14.9 8.33477L12 11.2348L9.1 8.33477C8.91667 8.15143 8.68333 8.05977 8.4 8.05977C8.11667 8.05977 7.88333 8.15143 7.7 8.33477C7.51667 8.5181 7.425 8.75143 7.425 9.03477C7.425 9.3181 7.51667 9.55143 7.7 9.73477L10.6 12.6348L7.7 15.5348C7.51667 15.7181 7.425 15.9514 7.425 16.2348C7.425 16.5181 7.51667 16.7514 7.7 16.9348C7.88333 17.1181 8.11667 17.2098 8.4 17.2098C8.68333 17.2098 8.91667 17.1181 9.1 16.9348L12 14.0348ZM12 22.6348C10.6167 22.6348 9.31667 22.3723 8.1 21.8473C6.88333 21.3223 5.825 20.6098 4.925 19.7098C4.025 18.8098 3.3125 17.7514 2.7875 16.5348C2.2625 15.3181 2 14.0181 2 12.6348C2 11.2514 2.2625 9.95143 2.7875 8.73477C3.3125 7.5181 4.025 6.45977 4.925 5.55977C5.825 4.65977 6.88333 3.94727 8.1 3.42227C9.31667 2.89727 10.6167 2.63477 12 2.63477C13.3833 2.63477 14.6833 2.89727 15.9 3.42227C17.1167 3.94727 18.175 4.65977 19.075 5.55977C19.975 6.45977 20.6875 7.5181 21.2125 8.73477C21.7375 9.95143 22 11.2514 22 12.6348C22 14.0181 21.7375 15.3181 21.2125 16.5348C20.6875 17.7514 19.975 18.8098 19.075 19.7098C18.175 20.6098 17.1167 21.3223 15.9 21.8473C14.6833 22.3723 13.3833 22.6348 12 22.6348Z" fill="#BC3B34"/>
</g>
</svg>

